<svg xmlns="http://www.w3.org/2000/svg" width="266" height="351" viewBox="0 0 266 351">
  <g id="humaaans_sitting-7" data-name="humaaans/sitting-7" transform="translate(-38 -28)">
    <g id="A-Human_Sitting" data-name="A-Human/Sitting" transform="translate(340 24) rotate(180)">
      <g id="Head_Front_Chongo" data-name="Head/Front/Chongo" transform="translate(82)">
        <g id="Head" transform="translate(54 -31)">
          <path id="Path_1" data-name="Path 1" d="M8.262-34.49C3.654-29.081.536-22.453,1.057-15.026c1.5,21.4,31.292,16.693,37.087,5.892s5.106-38.2-2.383-40.13c-2.987-.77-9.349,1.116-15.825,5.019L24-73H0Z" fill="#b28b67" fill-rule="evenodd"/>
        </g>
        <path id="hair" d="M82.663-28.37a31.32,31.32,0,0,1-10.043,1.11,17.272,17.272,0,0,1,1.223,8.731c-.358,2.877-1.644,5.327-2.833,7.894a10.8,10.8,0,0,1-2.1,3.265,7.155,7.155,0,0,1-3.39,1.821,9.07,9.07,0,0,1-3.9,0c-.568-.119-1.077-.379-1.634-.523s-.847.209-1.261.568a7.14,7.14,0,0,1-3.721,1.443,9.6,9.6,0,0,1-4.235-.508,8.288,8.288,0,0,1-3.527-2.26,5.913,5.913,0,0,1-1.057-1.62c-.1-.246-.119-.392-.365-.482-.227-.083-.493-.086-.727-.165a9.146,9.146,0,0,1-5.258-4.766,15.111,15.111,0,0,1-.827-6.208c.08-2.588,2.417-9.34,4.6-11.8A14.682,14.682,0,0,1,51.2-36.155a21.7,21.7,0,0,1-3.964-7.391,36.173,36.173,0,0,1-1.814-8.978,29.3,29.3,0,0,1,.451-8.852,9.593,9.593,0,0,1,4.289-6.246,20.481,20.481,0,0,1,3.3-1.551,21.733,21.733,0,0,1,3.4-1.09c2.211-.457,4.758-.378,6.461,1.381a12.132,12.132,0,0,1,1.736,2.206c.161.279.258.461.062.733a5.245,5.245,0,0,1-.914.831A8.617,8.617,0,0,0,61.163-59.4c-.272,2.342.357,5.366,2.635,6.388,2.811,1.262,5.907-.187,8.405-1.537,1.062,3.748,3.242,7.122,6.661,8.841,3.782,1.9,8.121,2.125,12.008,3.756a7.163,7.163,0,0,1,2.79,1.774,3.605,3.605,0,0,1,.8,1.311,2.122,2.122,0,0,1-.556,1.647C92.245-34.624,85.943-29.37,82.663-28.37Z" fill="#e4e2e2" fill-rule="evenodd"/>
      </g>
      <g id="Bottom_Sitting_Wheelchair" data-name="Bottom/Sitting/Wheelchair" transform="translate(0 -187)">
        <path id="Skin" d="M254.884-18.1c7.18,9.738,25.127,3.291,25.116-4.77-.028-21.166-19.343-121.646-20.352-127.99s-11.811-8.419-12.44-.492c-1,12.612-2.861,56.335-1,76.676.543,5.942,1.116,11.685,1.693,17.065q-15.227-27.355-46.308-77.327l-11.516,5.262q13.564,44.694,22.246,63.105c9.91,21.017,19.2,39.015,23.113,45.354C240.6-12.838,248.981-13.95,254.884-18.1Z" fill="#b28b67" fill-rule="evenodd"/>
        <path id="Leg-Back" d="M208.818-123.34l5.118,101.51c3.688,17.552,34.907,9.406,34.894,0-.029-21.355-12.857-95.127-12.866-101.489Z" transform="translate(36.859 74.197) rotate(-20)" fill="#2274ef" fill-rule="evenodd"/>
        <path id="Leg-Front" d="M281-30.177c0-26.541-11.634-88.929-11.642-94.773l-28.182.95q7.389,81.364,6.233,81.916c-1.736.827-71.147-9.607-91.964-10.395C125.426-53.615,113.008-35.2,112-.251h58.148q74.582-8.9,98.037-12.384C278.226-14.125,281-22.865,281-30.177Z" fill="#3385ff" fill-rule="evenodd"/>
        <g id="Accessories_Shoe_Flat-Sneaker" data-name="Accessories/Shoe/Flat-Sneaker" transform="matrix(0.97, -0.242, 0.242, 0.97, 192.065, -101.441)">
          <path id="shoe" d="M2.678-25.4A21.472,21.472,0,0,1,1-32.106,50.177,50.177,0,0,1,1.9-40H58.3q2.2,7.268-2.538,7.848T47.9-31.106L21.68-19.419a1,1,0,0,1-1.321-.506l-.011-.026-1.685-4.088a17.983,17.983,0,0,0-7.127-2.046,16.139,16.139,0,0,0-6.152,1.8h0a2,2,0,0,1-2.652-.985Q2.7-25.335,2.678-25.4Z" fill="#e4e4e4" fill-rule="evenodd"/>
        </g>
        <g id="Accessories_Shoe_Flat-Sneaker-2" data-name="Accessories/Shoe/Flat-Sneaker" transform="translate(243 -111)">
          <path id="shoe-2" data-name="shoe" d="M2.678-25.4A21.472,21.472,0,0,1,1-32.106,50.177,50.177,0,0,1,1.9-40H58.3q2.2,7.268-2.538,7.848T47.9-31.106L21.68-19.419a1,1,0,0,1-1.32-.506l-.011-.026-1.685-4.088a17.983,17.983,0,0,0-7.127-2.046,16.139,16.139,0,0,0-6.152,1.8h0a2,2,0,0,1-2.652-.985Q2.7-25.335,2.678-25.4Z" fill="#e4e4e4" fill-rule="evenodd"/>
        </g>
        <rect id="Base" width="53" height="7" rx="3.5" transform="translate(245 -158)" fill="#20223a"/>
        <path id="Seat" d="M109-6H216a10,10,0,0,0,10-10V-65H103a4,4,0,0,0-4,4v45A10,10,0,0,0,109-6Z" fill="#20223a" fill-rule="evenodd"/>
        <path id="Wheel-Stuff" d="M216-6h2.194a10,10,0,0,0,9.868-8.38L250-148H239.314" fill="#20223a" fill-rule="evenodd"/>
        <circle id="Front-Wheel" cx="18" cy="18" r="18" transform="translate(227 -168)" fill="#20223a"/>
        <g id="Wheel" transform="translate(36 -14)">
          <path id="Path_2" data-name="Path 2" d="M76-152A76,76,0,0,0,0-76,76,76,0,0,0,76,0a76,76,0,0,0,76-76A76,76,0,0,0,76-152Zm0,14a62,62,0,0,1,62,62A62,62,0,0,1,76-14,62,62,0,0,1,14-76,62,62,0,0,1,76-138Z" fill="#1a1c31" fill-rule="evenodd"/>
          <rect id="Wheel-Stuff-2" data-name="Wheel-Stuff" width="8" height="132" transform="translate(72 -142)" fill="#1a1c31"/>
          <rect id="Wheel-Stuff-3" data-name="Wheel-Stuff" width="8" height="132.001" rx="2" transform="translate(26.502 -119.841) rotate(-45)" fill="#1a1c31"/>
          <rect id="Wheel-Stuff-4" data-name="Wheel-Stuff" width="8" height="132" rx="2" transform="translate(10 -72) rotate(-90)" fill="#1a1c31"/>
          <rect id="Wheel-Stuff-5" data-name="Wheel-Stuff" width="8" height="132.001" rx="2" transform="translate(32.159 -26.502) rotate(-135)" fill="#1a1c31"/>
        </g>
      </g>
      <g id="Body_Pointing-Up" data-name="Body/Pointing-Up" transform="translate(22 -82)">
        <path id="Skin-2" data-name="Skin" d="M191.456-2.341l37.9,11.378a85.872,85.872,0,0,0,20.009,12.074c1.823.343,4.841.144,1.069-4.134s-7.546-8.948-6.469-10.742,5-.442,6.136-3.283q1.136-2.842-19.5-4.07L201.134-18.463Zm-3.349-66.827,31.9-23.424a85.854,85.854,0,0,0,21.684-8.713c1.371-1.25,3.028-3.78-2.658-3.343s-11.687.642-12.472-1.3,2.656-4.259,1.07-6.876q-1.585-2.616-14.986,13.124L181.055-86.6Z" fill="#b28b67" fill-rule="evenodd"/>
        <path id="Coat-Back" d="M126.986-15.65c25.162-26.79,55.851-44.272,97.706-59.778l-9.3-18.586c-43.185,4.072-66.272,7.324-84.371,34.155-4.543,6.734-12.665,29.905-17.531,41.938Z" transform="matrix(0.966, -0.259, 0.259, 0.966, 19.953, 41.896)" fill="#205ebb" fill-rule="evenodd"/>
        <path id="Shirt" d="M90-114h77Q140.837-34.208,140.27-4.472c-.019,1.011-1.886,2.792-2.711,2.558Q128.5-4.472,118.172,0C99.918-29.358,93.6-65.5,90-114Z" fill="#f2f2f2" fill-rule="evenodd"/>
        <path id="Coat-Front" d="M124.743-.047C146.814-.228,182.624-4.259,223.923,9L228-11.373C196.787-31.448,165.181-47,137.486-44.791c12.026-51.586,11.472-93.815-15.079-93.815H81.351C74.83-94.784,91.968-34.024,107.856-3.377A5.417,5.417,0,0,0,112.8,0h11.93C124.732-.016,124.737-.032,124.743-.047Z" fill="#296acc" fill-rule="evenodd"/>
      </g>
    </g>
  </g>
</svg>
